<svg width="600" height="600" viewBox="0 0 600 600" fill="none" xmlns="http://www.w3.org/2000/svg">
<rect width="600" height="600" fill="#9F9893"/>
<path d="M88.4138 10.4825C121.878 20.6962 157.401 26.1907 194.207 26.1907C231.013 26.1907 266.536 20.6962 300 10.483C333.464 20.6962 368.987 26.1907 405.793 26.1907C442.599 26.1907 478.122 20.6962 511.586 10.4825C560.385 72.1578 589.517 150.106 589.517 234.859C589.517 409.944 465.189 555.986 300 589.517C134.811 555.986 10.4825 409.944 10.4825 234.859C10.4825 150.106 39.6157 72.1573 88.4138 10.4825Z" fill="white" stroke="black"/>
<path d="M88.4138 10.4825C121.878 20.6962 157.401 26.1907 194.207 26.1907C231.013 26.1907 266.536 20.6962 300 10.483C333.464 20.6962 368.987 26.1907 405.793 26.1907C442.599 26.1907 478.122 20.6962 511.586 10.4825C560.385 72.1578 589.517 150.106 589.517 234.859C589.517 409.944 465.189 555.986 300 589.517C134.811 555.986 10.4825 409.944 10.4825 234.859C10.4825 150.106 39.6157 72.1573 88.4138 10.4825Z" fill="white" stroke="black" stroke-linecap="round" stroke-linejoin="round"/>
<path d="M22.5458 233.515C22.5458 202.284 26.6048 172.005 34.2228 143.178H565.778C573.395 172.005 577.454 202.284 577.454 233.515C577.454 402.572 458.515 543.756 300 577.454C141.485 543.756 22.5458 402.572 22.5458 233.515Z" fill="#003F87"/>
<path d="M37.0216 131.115C49.0167 92.1723 67.402 56.092 90.9323 24.1395C123.332 33.2076 157.459 38.0528 192.702 38.0528C229.955 38.0528 265.962 32.6398 300 22.5459C334.038 32.6398 370.045 38.0528 407.298 38.0528C442.541 38.0528 476.669 33.2076 509.068 24.1395C532.598 56.092 550.983 92.1723 562.978 131.115H37.0216Z" fill="#AF1E2D"/>
<path d="M115.24 119.052V58.7361H123.689V119.052H115.24ZM164.251 119.052L145.642 78.6316V119.052H137.011V58.7361H145.642L162.182 94.9255V58.7361H170.813V119.052H164.251ZM198.903 66.7498V119.052H190.184V66.7498H179.216V58.7361H209.871V66.7498H198.903ZM218.128 119.052V58.7361H246.446V67.2003H226.759V82.4118H239.255V90.6947H226.759V110.59H248.783V119.052H218.128ZM283.765 119.052L275.762 90.6947H267.493V119.052H258.863V58.7361H276.843C279.18 58.7362 281.323 59.1263 283.271 59.9064C285.219 60.6867 286.897 61.7673 288.305 63.1482C289.713 64.5292 290.792 66.2247 291.541 68.2347C292.29 70.2448 292.664 72.4504 292.664 74.8514C292.664 78.4522 291.945 81.513 290.506 84.034C289.068 86.5551 286.91 88.355 284.033 89.4337L292.664 119.052H283.765ZM284.214 74.8514C284.214 72.5108 283.495 70.6505 282.057 69.2704C280.618 67.8904 278.73 67.2004 276.393 67.2003H267.493V82.4118H276.393C278.91 82.4118 280.842 81.7667 282.191 80.4764C283.54 79.1861 284.214 77.3111 284.214 74.8514ZM333.412 102.577C333.412 105.038 332.978 107.334 332.109 109.464C331.24 111.594 330.042 113.439 328.514 115C326.986 116.56 325.217 117.805 323.209 118.736C321.201 119.666 319.028 120.131 316.691 120.131C314.054 120.131 311.687 119.621 309.59 118.601C307.493 117.581 305.725 116.201 304.287 114.461C302.848 112.721 301.739 110.711 300.96 108.43C300.181 106.148 299.792 103.778 299.792 101.318H308.241C308.241 102.578 308.406 103.823 308.735 105.053C309.064 106.283 309.574 107.393 310.263 108.384C310.953 109.375 311.822 110.17 312.871 110.77C313.92 111.37 315.193 111.67 316.691 111.67C317.83 111.67 318.925 111.43 319.973 110.95C321.022 110.47 321.921 109.81 322.67 108.969C323.419 108.129 324.018 107.153 324.467 106.044C324.916 104.934 325.141 103.778 325.141 102.577C325.141 100.837 324.781 99.2918 324.063 97.9419C323.344 96.5922 322.085 95.2268 320.288 93.8458C319.988 93.5455 319.868 93.3802 319.928 93.3499C319.989 93.3197 319.809 93.1549 319.389 92.8554C318.969 92.556 318.085 91.9708 316.736 91.0999C315.387 90.2291 313.185 88.7442 310.129 86.6453C307.672 84.964 305.83 82.9979 304.601 80.747C303.372 78.4961 302.757 76.0209 302.757 73.3212C302.757 71.1601 303.147 69.1344 303.926 67.2443C304.705 65.3543 305.799 63.689 307.207 62.2484C308.615 60.808 310.249 59.6826 312.107 58.8721C313.965 58.0617 315.972 57.6565 318.129 57.6564C320.287 57.6565 322.28 58.0466 324.108 58.8268C325.936 59.607 327.524 60.6876 328.872 62.0685C330.22 63.4495 331.298 65.1001 332.108 67.0204C332.917 68.9408 333.352 71.041 333.412 73.3212H325.141C325.022 71.2205 324.303 69.5401 322.984 68.28C321.666 67.02 320.047 66.39 318.129 66.3899C316.151 66.39 314.474 67.0502 313.096 68.3707C311.718 69.6912 311.029 71.3414 311.029 73.3212C311.029 74.8212 311.418 76.0813 312.197 77.1014C312.976 78.1216 314.474 79.2617 316.691 80.5217C322.505 83.8825 326.746 87.3033 329.412 90.784C332.079 94.2648 333.412 98.1956 333.412 102.577ZM358.503 66.7498V119.052H349.785V66.7498H338.817V58.7361H369.471V66.7498H358.503ZM402.9 119.052L398.675 102.577H385.729L381.776 119.052H373.054L388.066 58.7361H396.519L411.531 119.052H402.9ZM392.113 76.7415L387.888 94.115H396.519L392.113 76.7415ZM434.88 66.7498V119.052H426.161V66.7498H415.193V58.7361H445.848V66.7498H434.88ZM454.106 119.052V58.7361H482.423V67.2003H462.736V82.4118H475.233V90.6947H462.736V110.59H484.76V119.052H454.106Z" fill="white"/>
<path d="M430 326.668V461.5H155V186.5H406.24L379.414 214H182.5V434H402.5V354.69L430 326.668ZM442.43 188.796L313.125 321.332L252.556 263.912L210 306.496L313.125 406.5L485 231.366L442.43 188.796Z" fill="#FFFF00"/>
</svg>
